<svg width="25" height="25" viewBox="0 0 25 25" fill="none" xmlns="http://www.w3.org/2000/svg">
<path d="M12.4987 2.0835C8.46745 2.0835 5.20703 5.34391 5.20703 9.37516C5.20703 14.8439 12.4987 22.9168 12.4987 22.9168C12.4987 22.9168 19.7904 14.8439 19.7904 9.37516C19.7904 5.34391 16.5299 2.0835 12.4987 2.0835ZM7.29036 9.37516C7.29036 6.50016 9.6237 4.16683 12.4987 4.16683C15.3737 4.16683 17.707 6.50016 17.707 9.37516C17.707 12.3752 14.707 16.8647 12.4987 19.6668C10.332 16.8856 7.29036 12.3439 7.29036 9.37516Z" fill="black" fill-opacity="0.3"/>
<path d="M12.4987 11.9791C13.9369 11.9791 15.1029 10.8132 15.1029 9.37492C15.1029 7.93668 13.9369 6.77075 12.4987 6.77075C11.0605 6.77075 9.89453 7.93668 9.89453 9.37492C9.89453 10.8132 11.0605 11.9791 12.4987 11.9791Z" fill="black" fill-opacity="0.3"/>
</svg>
