<svg width="88" height="88" viewBox="0 0 88 88" fill="none" xmlns="http://www.w3.org/2000/svg">
<rect x="43.5273" width="61.5581" height="61.5581" rx="6.83979" transform="rotate(45 43.5273 0)" fill="white"/>
<path d="M33.4326 58.6481H40.7598C41.9167 58.6481 42.8423 57.7956 43.0351 56.7105H44.7319C44.9247 57.7956 45.8503 58.6481 47.0072 58.6481H54.3344C55.607 58.6481 56.6483 57.6018 56.6483 56.323V40.1632C56.6483 39.1944 56.3397 38.2644 55.7998 37.5668C54.7586 36.288 54.1801 34.3891 54.1801 32.4515C54.1801 31.599 54.2958 30.7852 54.4887 30.0101C54.6429 29.3901 54.5272 28.7313 54.1416 28.2663C53.7559 27.7625 53.216 27.4912 52.599 27.4912H50.1695H50.1309C50.0923 27.4912 50.0538 27.4912 50.0152 27.53C42.6109 30.6302 37.906 27.6075 37.8675 27.5687H37.8289C37.7903 27.5687 37.7903 27.53 37.7518 27.53C37.7132 27.53 37.7132 27.53 37.6746 27.53H37.6361H35.2065C34.5895 27.53 34.011 27.8012 33.664 28.305C33.2783 28.8088 33.1626 29.4676 33.3169 30.0489C33.5097 30.8239 33.6254 31.6377 33.6254 32.4903C33.6254 34.4279 33.0469 36.3268 32.0057 37.6056C31.4658 38.3031 31.1573 39.2332 31.1573 40.202V56.3617C31.1187 57.6405 32.16 58.6481 33.4326 58.6481ZM55.877 48.1075H45.4646V46.5186H46.8144C47.0458 46.5186 47.2 46.3636 47.2 46.1311C47.2 45.8986 47.0458 45.7436 46.8144 45.7436H45.4646V43.8447H55.877V48.1075ZM44.6933 55.9354H43.0736V51.2464H44.6933V55.9354ZM43.0736 50.4714V46.5186H44.6933V50.4714H43.0736ZM44.6933 45.7436H43.0736V41.7908H44.6933V45.7436ZM42.3024 45.7436H40.6441C40.4127 45.7436 40.2585 45.8986 40.2585 46.1311C40.2585 46.3636 40.4127 46.5186 40.6441 46.5186H42.3024V48.1075H31.89V43.8447H42.3024V45.7436ZM40.7598 57.8731H33.4326C32.5842 57.8731 31.89 57.1755 31.89 56.323V48.8825H42.3024V50.4714H40.6441C40.4127 50.4714 40.2585 50.6264 40.2585 50.8589C40.2585 51.0914 40.4127 51.2464 40.6441 51.2464H42.3024V56.323C42.3024 57.2143 41.6082 57.8731 40.7598 57.8731ZM54.3344 57.8731H47.0072C46.1588 57.8731 45.4646 57.1755 45.4646 56.323V51.2464H46.8144C47.0458 51.2464 47.2 51.0914 47.2 50.8589C47.2 50.6264 47.0458 50.4714 46.8144 50.4714H45.4646V48.8825H55.877V56.323C55.877 57.2143 55.1828 57.8731 54.3344 57.8731ZM52.5604 28.2663C52.9461 28.2663 53.2932 28.4213 53.5246 28.7313C53.7559 29.0413 53.8331 29.4288 53.7174 29.8164C53.486 30.6689 53.3703 31.5602 53.3703 32.4515C53.3703 34.5829 54.0259 36.598 55.1442 38.0319C55.607 38.6131 55.8384 39.3494 55.8384 40.1632V43.0697H45.4261V41.7908H46.7758C47.0072 41.7908 47.1615 41.6358 47.1615 41.4033C47.1615 41.1708 47.0072 41.0158 46.7758 41.0158H45.4261V36.7918C45.4261 35.9005 45.9274 35.0867 46.6601 34.7379C49.0125 33.6141 50.478 30.5139 50.478 28.2663H52.5604ZM43.4593 29.7001C45.2332 29.7001 47.3543 29.3513 49.7838 28.4213C49.6681 30.4364 48.3569 33.1103 46.3902 34.0404C45.3489 34.5441 44.6933 35.5905 44.6933 36.7918V41.0158H43.0736V36.7918C43.0736 35.5905 42.418 34.5054 41.3768 34.0404C39.4486 33.1491 38.1374 30.5526 37.9832 28.5375C38.9087 28.9638 40.7984 29.7001 43.4593 29.7001ZM32.5842 38.0706C33.7025 36.6368 34.3581 34.5829 34.3581 32.4903C34.3581 31.5602 34.2424 30.6689 34.011 29.8551C33.8953 29.4676 33.9725 29.0801 34.2039 28.77C34.4352 28.46 34.7823 28.305 35.168 28.305H37.2119C37.2504 30.5914 38.7159 33.6916 41.0297 34.7767C41.801 35.1254 42.2638 35.9392 42.2638 36.8305V41.0545H40.6055C40.3741 41.0545 40.2199 41.2095 40.2199 41.4421C40.2199 41.6746 40.3741 41.8296 40.6055 41.8296H42.2638V43.0697H31.8514V40.1632C31.89 39.3882 32.16 38.6131 32.5842 38.0706Z" fill="black"/>
<rect x="43.5273" y="7.48598" width="50.9713" height="50.9713" rx="5.22944" transform="rotate(45 43.5273 7.48598)" stroke="black" stroke-width="1.1161"/>
</svg>
