<svg width="88" height="88" viewBox="0 0 88 88" fill="none" xmlns="http://www.w3.org/2000/svg">
<rect x="43.5273" width="61.5581" height="61.5581" rx="6.83979" transform="rotate(45 43.5273 0)" fill="white"/>
<path d="M60.3833 52.467C59.807 53.1554 59.1043 53.7312 58.3105 54.1617C57.2582 54.7323 56.0795 55.0295 54.8824 55.0259L54.8797 55.0259C53.6827 55.0295 52.5039 54.7323 51.4517 54.1617C50.6578 53.7312 49.9551 53.1554 49.3788 52.467H60.3833Z" stroke="black" stroke-width="0.916379"/>
<path d="M54.8842 40.6511L54.8858 40.6511C56.0828 40.6475 57.2615 40.9446 58.3138 41.5153C59.1076 41.9458 59.8103 42.5215 60.3866 43.21H49.383C49.9892 42.4899 50.7323 41.8942 51.5714 41.4588C52.5949 40.9277 53.7311 40.6507 54.8842 40.6511Z" stroke="black" stroke-width="0.916379"/>
<path d="M31.4905 49.9236C31.4905 50.0544 31.3845 50.1604 31.2536 50.1604C31.1228 50.1604 31.0168 50.0544 31.0168 49.9236C31.0168 49.7928 31.1228 49.6867 31.2536 49.6867C31.3845 49.6867 31.4905 49.7928 31.4905 49.9236Z" stroke="black" stroke-width="0.916379"/>
<path d="M36.1952 48.647L36.1952 48.647L36.196 48.6502C36.243 48.8282 36.2787 49.0091 36.3031 49.1916L36.3034 49.1938C36.3368 49.4356 36.3539 49.6793 36.3547 49.9234C36.3508 51.1623 35.8964 52.3574 35.0761 53.2858C34.2555 54.2146 33.125 54.8129 31.8956 54.9691C30.6662 55.1253 29.4219 54.8287 28.3952 54.1347C27.3688 53.441 26.63 52.3976 26.3164 51.1992C26.2706 51.0186 26.2344 50.8357 26.2082 50.6512L26.2071 50.6438L26.2058 50.6364C26.1648 50.4036 26.1462 50.1674 26.1501 49.9311L26.1502 49.9311L26.1502 49.9225C26.1477 48.6789 26.5996 47.4772 27.4208 46.5433C28.2419 45.6094 29.376 45.0076 30.6097 44.8509C31.8434 44.6942 33.0918 44.9936 34.1204 45.6926C35.1489 46.3916 35.8868 47.4422 36.1952 48.647ZM29.8394 52.0382C30.2577 52.3176 30.7494 52.4668 31.2524 52.4668C31.927 52.4668 32.5739 52.1988 33.0508 51.7219C33.5278 51.2449 33.7958 50.598 33.7958 49.9234C33.7958 49.4204 33.6466 48.9287 33.3671 48.5104C33.0877 48.0922 32.6905 47.7662 32.2257 47.5737C31.761 47.3812 31.2496 47.3308 30.7562 47.429C30.2629 47.5271 29.8097 47.7693 29.454 48.125C29.0983 48.4807 28.8561 48.9339 28.7579 49.4273C28.6598 49.9206 28.7102 50.432 28.9027 50.8967C29.0952 51.3615 29.4212 51.7587 29.8394 52.0382Z" stroke="black" stroke-width="0.916379"/>
<path d="M43.5246 49.9237V42.0412H46.5417C46.6045 42.0412 46.6647 42.0662 46.7092 42.1106C46.7536 42.155 46.7785 42.2152 46.7785 42.2781V45.0583V45.5165H47.2367H61.985C62.4958 45.5507 62.9796 45.7526 63.3623 46.0887L63.4757 46.2023C63.7919 46.5187 64.0099 46.9198 64.1036 47.3571C64.1973 47.7945 64.1627 48.2497 64.0039 48.6679C63.845 49.086 63.5688 49.4495 63.2084 49.7144C62.8515 49.9767 62.4271 50.1315 61.9853 50.1605H43.7615C43.6986 50.1605 43.6384 50.1356 43.594 50.0911C43.5496 50.0467 43.5246 49.9865 43.5246 49.9237ZM55.8412 47.1978L55.4602 47.4523L55.8412 47.1978C55.7145 47.0081 55.5344 46.8603 55.3237 46.773C55.1129 46.6858 54.881 46.6629 54.6573 46.7074C54.4336 46.7519 54.2281 46.8617 54.0669 47.023C53.9056 47.1843 53.7957 47.3898 53.7512 47.6135C53.7067 47.8372 53.7296 48.0691 53.8169 48.2798C53.9042 48.4905 54.052 48.6707 54.2416 48.7974C54.4313 48.9241 54.6542 48.9917 54.8823 48.9917C55.1882 48.9917 55.4815 48.8702 55.6978 48.654C55.9141 48.4377 56.0356 48.1444 56.0356 47.8385C56.0356 47.6104 55.9679 47.3874 55.8412 47.1978Z" stroke="black" stroke-width="0.916379"/>
<path d="M31.2498 42.515C29.2853 42.5152 27.4012 43.2957 26.012 44.6849C24.6226 46.0743 23.8421 47.9588 23.8421 49.9237C23.8421 49.977 23.8393 50.0246 23.8358 50.0832C23.8338 50.1179 23.8315 50.1563 23.8295 50.2021C23.8276 50.2438 23.8256 50.2967 23.827 50.355C23.782 50.3085 23.7397 50.2593 23.7002 50.2075C23.486 49.9257 23.3695 49.5818 23.3683 49.2279L23.3683 43.6682L23.3683 43.667C23.3682 43.6174 23.3837 43.5689 23.4126 43.5285C23.4414 43.4884 23.482 43.4582 23.5287 43.4422C23.529 43.4422 23.5292 43.4421 23.5294 43.442L27.6901 42.0551C27.7196 42.0467 27.75 42.0421 27.7806 42.0412H30.5558H31.0139V41.583V32.5473V32.0891H30.5558H29.1656C29.1028 32.0891 29.0426 32.0642 28.9982 32.0198C28.9537 31.9753 28.9288 31.9151 28.9288 31.8523C28.9288 31.7895 28.9537 31.7292 28.9982 31.6848C29.0426 31.6404 29.1028 31.6154 29.1656 31.6154H43.0667C43.1295 31.6154 43.1898 31.6404 43.2342 31.6848C43.2786 31.7292 43.3036 31.7895 43.3036 31.8523C43.3036 31.9151 43.2786 31.9754 43.2342 32.0198C43.1898 32.0642 43.1295 32.0891 43.0667 32.0891H40.2101H39.0848L39.89 32.8752C40.3098 33.2851 40.6436 33.7746 40.8717 34.3152C41.0998 34.8558 41.2177 35.4365 41.2184 36.0232V48.7635H38.5282C38.5043 48.6133 38.4763 48.4643 38.4441 48.3166V48.2407L38.4186 48.1676L38.3687 48.024C38.3568 47.981 38.3432 47.9429 38.3322 47.9135C38.3256 47.896 38.3189 47.8792 38.3136 47.8655L38.2994 47.8292C38.2967 47.8223 38.2947 47.8167 38.2931 47.8122C38.2939 47.776 38.2923 47.7397 38.2883 47.7037L38.2834 47.6602L38.2703 47.6185C38.2341 47.5026 38.1953 47.3855 38.1472 47.2652L38.1464 47.2632L38.0421 47.0061L38.0419 47.0054C38.0054 46.9158 37.9644 46.8281 37.9192 46.7425C37.8821 46.6581 37.8362 46.5682 37.8026 46.5024C37.7929 46.4833 37.7842 46.4663 37.7771 46.452C37.7321 46.3619 37.6813 46.274 37.6369 46.1979C37.6059 46.1305 37.5678 46.0667 37.5231 46.0076C37.4394 45.8693 37.3475 45.7287 37.2476 45.5925C37.1447 45.4423 37.0332 45.2982 36.9137 45.1608L36.9138 45.1607L36.907 45.1532L36.8473 45.0876C36.7396 44.9533 36.624 44.8255 36.5011 44.7049C36.3663 44.5702 36.2267 44.4375 36.0836 44.3166C35.9377 44.1855 35.7846 44.0627 35.6249 43.9487C35.6249 43.9487 35.6248 43.9486 35.6248 43.9486L35.6205 43.9456C35.4774 43.8433 35.323 43.7331 35.1597 43.6292L35.1534 43.6251L35.1468 43.6213L35.1403 43.6174C34.9948 43.5314 34.834 43.4364 34.6701 43.3539C34.5231 43.2715 34.3707 43.199 34.2141 43.1367C34.0611 43.064 33.9034 43.0016 33.7421 42.9498C33.3235 42.796 32.8911 42.6827 32.4509 42.6113C32.0539 42.5456 31.6522 42.5133 31.2498 42.515ZM31.2498 42.515C31.2495 42.515 31.2492 42.515 31.2489 42.515L31.2508 42.9731V42.515C31.2505 42.515 31.2502 42.515 31.2498 42.515ZM24.3767 50.9107C24.3701 50.8574 24.3602 50.7882 24.3479 50.7153L23.929 51.0146C24.0856 51.1077 24.2547 51.1806 24.4323 51.2304C24.4323 51.1693 24.418 51.1081 24.4033 51.0456C24.393 51.0015 24.3825 50.9567 24.3767 50.9107ZM37.7218 47.4354C37.7635 47.5396 37.7982 47.6439 37.833 47.7551L37.5063 46.9419C37.5475 47.0187 37.5846 47.0975 37.6175 47.1782L37.7218 47.4354ZM40.2865 39.9561H40.7447V39.4979V36.0226C40.7447 34.9794 40.3303 33.9789 39.5926 33.2412C38.855 32.5036 37.8545 32.0891 36.8112 32.0891H35.4211H34.9629V32.5473V37.8993V38.0385L35.0404 38.1542L36.1108 39.7528L36.2469 39.9561H36.4915H40.2865Z" stroke="black" stroke-width="0.916379"/>
<rect x="43.5273" y="7.48598" width="50.9713" height="50.9713" rx="5.22944" transform="rotate(45 43.5273 7.48598)" stroke="black" stroke-width="1.1161"/>
</svg>
