<svg width="88" height="88" viewBox="0 0 88 88" fill="none" xmlns="http://www.w3.org/2000/svg">
<rect x="43.5273" width="61.5581" height="61.5581" rx="6.83979" transform="rotate(45 43.5273 0)" fill="white"/>
<rect x="43.5273" y="7.48598" width="50.9713" height="50.9713" rx="5.22944" transform="rotate(45 43.5273 7.48598)" stroke="black" stroke-width="1.1161"/>
<path d="M31.8516 27.4917V58.6486H55.4705V32.8185L50.1437 27.4917H31.8516ZM50.4452 29.2003L53.7619 32.517H50.4452V29.2003ZM32.8566 57.6435V28.4968H49.4401V33.5221H54.4654V57.6435H32.8566Z" fill="#2B2B2B"/>
<path d="M52.4519 46.3359H34.8633V47.341H52.4519V46.3359Z" fill="#2B2B2B"/>
<path d="M52.4519 48.8491H34.8633V49.8542H52.4519V48.8491Z" fill="#2B2B2B"/>
<path d="M52.4574 51.3618H46.1758V52.3669H52.4574V51.3618Z" fill="#2B2B2B"/>
<path d="M43.6553 42.9696C45.8413 42.9696 48.0273 42.5927 50.1128 41.864L50.4394 41.7384V39.9042L49.6605 39.678V38.9494C49.6605 36.688 48.4042 34.6276 46.4192 33.6225V33.5723C46.4192 32.9944 45.9418 32.517 45.3639 32.517H44.1578V32.3662H43.1527V32.517H41.9467C41.3687 32.517 40.8913 32.9944 40.8913 33.5723V33.6225C38.9063 34.6527 37.65 36.7131 37.65 38.9494V39.678L36.8711 39.9293V41.7635L37.1977 41.8892C39.2832 42.5927 41.4692 42.9696 43.6553 42.9696ZM37.8762 40.6831L38.6551 40.457V38.9745C38.6551 37.291 39.5094 35.708 40.8913 34.8035V36.3362H41.8964V33.5723C41.8964 33.5472 41.9215 33.522 41.9467 33.522H43.1527V37.8689H44.1578V33.522H45.3639C45.389 33.522 45.4141 33.5472 45.4141 33.5723V36.3362H46.4192V34.8035C47.8011 35.7332 48.6554 37.291 48.6554 38.9745V40.457L49.4344 40.6831V41.0349C45.6905 42.2661 41.62 42.2661 37.8762 41.0349V40.6831Z" fill="#2B2B2B"/>
<path d="M47.5068 39.5781H39.793V40.5832H47.5068V39.5781Z" fill="#2B2B2B"/>
</svg>
