<svg width="88" height="88" viewBox="0 0 88 88" fill="none" xmlns="http://www.w3.org/2000/svg">
<rect x="43.5273" width="61.5581" height="61.5581" rx="6.83979" transform="rotate(45 43.5273 0)" fill="white"/>
<rect x="43.832" y="7.8727" width="50.9713" height="50.9713" rx="5.22944" transform="rotate(45 43.832 7.8727)" stroke="black" stroke-width="1.1161"/>
<path d="M56.2295 34.488H52.866C53.2941 34.1549 53.5693 33.6098 53.5693 33.0344C53.5693 32.0047 52.7132 31.1567 51.6736 31.1567C50.634 31.1567 49.7778 32.0047 49.7778 33.0344C49.7778 33.64 50.053 34.1549 50.4811 34.488H36.1713C36.5994 34.1549 36.8746 33.6098 36.8746 33.0344C36.8746 32.0047 36.0184 31.1567 34.9788 31.1567C33.9392 31.1567 33.0831 32.0047 33.0831 33.0344C33.0831 33.64 33.3583 34.1549 33.7864 34.488H30.423C30.2395 34.488 30.1172 34.6091 30.1172 34.7908V39.4849C30.1172 39.6666 30.2395 39.7878 30.423 39.7878H34.1839L30.7593 55.5356C30.7287 55.6264 30.7593 55.7173 30.8204 55.7778C30.8816 55.8384 30.9733 55.899 31.0651 55.899H34.0004C34.1533 55.899 34.2756 55.8081 34.3062 55.6567L36.2019 46.9651H50.5422L52.438 55.6567C52.4686 55.8081 52.5909 55.899 52.7437 55.899H55.6791C55.7708 55.899 55.8625 55.8687 55.9237 55.7778C55.9848 55.687 56.0154 55.6264 55.9848 55.5356L52.5297 39.7878H56.26C56.4435 39.7878 56.5658 39.6666 56.5658 39.4849V34.7908C56.5352 34.6394 56.4129 34.488 56.2295 34.488ZM51.7041 31.7927C52.4074 31.7927 52.9884 32.3681 52.9884 33.0646C52.9884 33.7612 52.4074 34.3366 51.7041 34.3366C51.0009 34.3366 50.4199 33.7612 50.4199 33.0646C50.4199 32.3681 51.0315 31.7927 51.7041 31.7927ZM35.0094 31.7927C35.7127 31.7927 36.2936 32.3681 36.2936 33.0646C36.2936 33.7612 35.7127 34.3366 35.0094 34.3366C34.3062 34.3366 33.7252 33.7612 33.7252 33.0646C33.7252 32.3681 34.3062 31.7927 35.0094 31.7927ZM51.7347 39.1821H48.2796L52.1628 35.0937H55.6179L51.7347 39.1821ZM35.3763 39.1821L39.2595 35.0937H42.7147L38.8315 39.1821H35.3763ZM38.434 35.0937L34.5508 39.1821H31.0956L34.9788 35.0937H38.434ZM43.5708 35.0937H47.0259L43.1427 39.1821H39.6876L43.5708 35.0937ZM47.8515 35.0937H51.3067L47.4234 39.1821H43.9683L47.8515 35.0937ZM34.1227 35.0937L30.7593 38.6067V35.0937H34.1227ZM33.7558 55.2933H31.432L34.7954 39.7878H37.1192L33.7558 55.2933ZM36.3242 46.3594L37.7613 39.7878H48.9828L50.3894 46.3594H36.3242ZM55.2816 55.2933H52.9578L49.5944 39.7878H51.9182L55.2816 55.2933ZM52.5603 39.1821L55.9237 35.6388V39.1821H52.5603Z" fill="black"/>
</svg>
