<svg width="13" height="22" viewBox="0 0 13 22" fill="none" xmlns="http://www.w3.org/2000/svg">
<path d="M6.59463 0C3.40096 0 0.812058 2.55246 0.812058 5.70097C0.812058 8.84957 3.40096 11.4022 6.59463 11.4022C9.78829 11.4022 12.3772 8.84957 12.3772 5.70097C12.3772 2.55246 9.78829 0 6.59463 0ZM6.59463 8.05779C5.27448 8.05779 4.20424 7.00257 4.20424 5.70105C4.20424 4.39953 5.27448 3.3444 6.59463 3.3444C7.91477 3.3444 8.98501 4.39953 8.98501 5.70105C8.98501 7.00257 7.91477 8.05779 6.59463 8.05779Z" fill="white"/>
<path d="M8.63563 15.9385C10.9506 15.4736 12.3379 14.3927 12.4113 14.3347C13.0887 13.7991 13.1975 12.8235 12.6543 12.1556C12.1111 11.4877 11.1216 11.3805 10.444 11.916C10.4297 11.9274 8.95009 13.0464 6.5156 13.048C4.08119 13.0464 2.5703 11.9274 2.55598 11.916C1.8784 11.3805 0.888934 11.4877 0.345748 12.1556C-0.197522 12.8235 -0.088702 13.7991 0.588709 14.3347C0.663103 14.3935 2.10763 15.5025 4.4875 15.9565L1.17071 19.374C0.567938 19.9902 0.586061 20.9715 1.21117 21.5658C1.51628 21.8558 1.90952 22 2.30243 22C2.71437 22 3.1259 21.8413 3.4344 21.5258L6.51568 18.2898L9.9082 21.5468C10.5229 22.1518 11.5182 22.1508 12.1318 21.5451C12.7453 20.9392 12.7445 19.9578 12.13 19.3529L8.63563 15.9385Z" fill="white"/>
</svg>
