<svg width="29" height="29" viewBox="0 0 29 29" fill="none" xmlns="http://www.w3.org/2000/svg">
<rect width="29" height="29" rx="5" fill="#FF5C51" fill-opacity="0.09"/>
<path d="M18.4836 23.822C15.4361 23.822 12.9461 21.3321 12.9461 18.2846L12.946 11.149C12.946 10.0527 12.0541 9.17934 10.9763 9.17934C9.88001 9.17934 9.00665 10.0712 9.00665 11.149V22.0567C9.00665 22.1869 8.89518 22.2983 8.76505 22.2983C8.63491 22.2983 8.52344 22.1869 8.52344 22.0567L8.52357 11.149C8.52357 9.8111 9.61988 8.71478 10.9578 8.71478C12.2957 8.71478 13.392 9.8111 13.392 11.149V18.3031C13.392 21.0905 15.659 23.3761 18.465 23.3761C21.2523 23.3761 23.5379 21.109 23.5379 18.3031L23.538 7.39542C23.538 7.26528 23.6495 7.15381 23.7796 7.15381C23.9098 7.15381 24.0212 7.26528 24.0212 7.39542V18.3031C24.0211 21.3508 21.5311 23.822 18.4837 23.822H18.4836Z" fill="#FF5C51"/>
<path d="M7.21817 22.2794C7.08803 22.2794 6.97656 22.168 6.97656 22.0378V20.5884C6.97656 20.4583 7.08804 20.3468 7.21817 20.3468C7.34831 20.3468 7.44112 20.4583 7.44112 20.5884V22.0378C7.44112 22.1678 7.34818 22.2794 7.21817 22.2794ZM18.256 22.2794C18.2374 22.2794 18.2374 22.2794 18.256 22.2794C17.68 22.2422 17.1597 22.0936 16.6579 21.8521C16.5464 21.7963 16.4907 21.6477 16.565 21.5362C16.6207 21.4247 16.7694 21.369 16.8809 21.4433C17.3082 21.6662 17.7914 21.7964 18.2745 21.8336C18.4047 21.8336 18.4975 21.945 18.4975 22.0752C18.4791 22.1678 18.3676 22.2794 18.256 22.2794L18.256 22.2794ZM20.0584 21.9263C19.9655 21.9263 19.8912 21.8706 19.854 21.7962C19.7983 21.6847 19.854 21.5361 19.9655 21.4803C20.4115 21.2759 20.8017 20.9786 21.1176 20.6255C21.2105 20.5325 21.3405 20.514 21.452 20.6069C21.5449 20.6999 21.5635 20.8299 21.4705 20.9414C21.0989 21.3502 20.6715 21.6846 20.1698 21.9077C20.1329 21.9263 20.0957 21.9263 20.0585 21.9263L20.0584 21.9263ZM15.3943 20.6441C15.32 20.6441 15.2456 20.6069 15.2084 20.5512C14.8926 20.0867 14.6881 19.5849 14.5767 19.0461C14.5582 18.9159 14.6324 18.8045 14.7626 18.7674C14.8927 18.7489 15.0042 18.8231 15.0412 18.9533C15.1342 19.4364 15.3199 19.8824 15.5987 20.2912C15.673 20.4027 15.6359 20.5328 15.543 20.6071C15.4873 20.6441 15.4315 20.6441 15.3943 20.6441L15.3943 20.6441ZM22.1396 19.3805H22.0839C21.9538 19.3433 21.8795 19.2318 21.9167 19.1018C21.9724 18.8417 22.0096 18.563 22.0096 18.3028V17.6153C22.0096 17.4852 22.1211 17.3737 22.2512 17.3737C22.3814 17.3737 22.4929 17.4852 22.4929 17.6153V18.3028C22.4929 18.6187 22.4557 18.9161 22.3814 19.2134C22.344 19.3062 22.2511 19.3805 22.1396 19.3805L22.1396 19.3805ZM7.21817 18.9717C7.08803 18.9717 6.97656 18.8602 6.97656 18.7301V17.1878C6.97656 17.0576 7.08804 16.9461 7.21817 16.9461C7.34831 16.9461 7.44112 17.0576 7.44112 17.1878V18.7301C7.44112 18.8602 7.34818 18.9717 7.21817 18.9717ZM14.7254 17.3736C14.5952 17.3736 14.4838 17.2621 14.4838 17.132V15.5897C14.4838 15.4596 14.5952 15.3481 14.7254 15.3481C14.8555 15.3481 14.967 15.4596 14.967 15.5897V17.132C14.967 17.2808 14.8555 17.3736 14.7254 17.3736ZM22.2326 15.98C22.1024 15.98 21.9909 15.8685 21.9909 15.7383V14.196C21.9909 14.0659 22.1024 13.9544 22.2326 13.9544C22.3627 13.9544 22.4742 14.0659 22.4742 14.196V15.7383C22.4742 15.8685 22.3627 15.98 22.2326 15.98ZM7.21817 15.5526C7.08803 15.5526 6.97656 15.4411 6.97656 15.311V13.7873C6.97656 13.6572 7.08804 13.5457 7.21817 13.5457C7.34831 13.5457 7.44112 13.6572 7.44112 13.7873V15.3296C7.44112 15.4596 7.34818 15.5526 7.21817 15.5526V15.5526ZM14.7254 13.9732C14.5952 13.9732 14.4838 13.8617 14.4838 13.7316V12.1893C14.4838 12.0591 14.5952 11.9476 14.7254 11.9476C14.8555 11.9476 14.967 12.0591 14.967 12.1893V13.7316C14.967 13.8616 14.8555 13.9732 14.7254 13.9732ZM22.2326 12.5795C22.1024 12.5795 21.9909 12.468 21.9909 12.3379V10.7956C21.9909 10.6655 22.1024 10.554 22.2326 10.554C22.3627 10.554 22.4742 10.6655 22.4742 10.7956V12.3379C22.4742 12.4679 22.3627 12.5795 22.2326 12.5795ZM7.21817 12.152C7.08803 12.152 6.97656 12.0406 6.97656 11.9104V11.13C6.97656 10.8513 7.01376 10.5912 7.05083 10.3123C7.06937 10.1822 7.19951 10.1079 7.32951 10.1264C7.45965 10.145 7.53392 10.2751 7.51539 10.4051C7.45965 10.6467 7.44112 10.8882 7.44112 11.1298V11.9291C7.44112 12.0405 7.34818 12.152 7.21817 12.152V12.152ZM14.6325 10.5726C14.521 10.5726 14.428 10.4983 14.4095 10.3867C14.298 9.90363 14.1122 9.47618 13.8148 9.06734C13.7405 8.95586 13.7591 8.82573 13.8705 8.75146C13.982 8.67718 14.1122 8.69572 14.1864 8.80719C14.5208 9.2532 14.7439 9.75485 14.8554 10.2938C14.8739 10.4239 14.7996 10.5354 14.6695 10.5725C14.6696 10.5726 14.6511 10.5726 14.6324 10.5726L14.6325 10.5726ZM22.2326 9.1603C22.1024 9.1603 21.9909 9.04883 21.9909 8.91869V7.37637C21.9909 7.24624 22.1024 7.13477 22.2326 7.13477C22.3627 7.13477 22.4742 7.24624 22.4742 7.37637V8.91869C22.4742 9.0675 22.3627 9.1603 22.2326 9.1603ZM8.09153 8.95589C8.0358 8.95589 7.98006 8.93736 7.94286 8.90015C7.84992 8.82588 7.83139 8.67721 7.92432 8.56574C8.27742 8.13838 8.70477 7.80384 9.20653 7.56237C9.318 7.50663 9.46667 7.54384 9.52241 7.67384C9.57814 7.78532 9.54094 7.93399 9.41093 7.98972C8.96493 8.21267 8.59328 8.51002 8.27742 8.88163C8.22168 8.93737 8.16595 8.95591 8.09155 8.95591L8.09153 8.95589ZM12.607 7.98972C12.5698 7.98972 12.5327 7.98972 12.5141 7.97118C12.0681 7.76677 11.6035 7.63677 11.1204 7.61809C10.9903 7.61809 10.8975 7.50661 10.8975 7.37648C10.8975 7.24635 11.0089 7.15353 11.1391 7.15353C11.6966 7.17207 12.2354 7.30221 12.7186 7.54383C12.8301 7.59956 12.8858 7.7297 12.8301 7.85971C12.7742 7.93398 12.6813 7.98971 12.607 7.98971L12.607 7.98972Z" fill="#FF5C51"/>
<path d="M5.67911 22.2796C5.54897 22.2796 5.4375 22.1681 5.4375 22.038V11.1488C5.4375 8.08269 7.92748 5.61133 10.975 5.61133C14.0225 5.61133 16.5125 8.1013 16.5125 11.1488V18.3029C16.5125 19.3993 17.4044 20.2726 18.4821 20.2726C19.5785 20.2726 20.4518 19.3807 20.4518 18.3029L20.4519 7.39522C20.4519 7.26508 20.5634 7.15361 20.6936 7.15361C20.8237 7.15361 20.9352 7.26508 20.9352 7.39522V18.3029C20.9352 19.6409 19.8389 20.7372 18.5009 20.7372C17.163 20.7372 16.0667 19.6409 16.0667 18.3029L16.0666 11.1488C16.0666 8.36149 13.7996 6.07588 10.9936 6.07588C8.20632 6.07588 5.92072 8.34291 5.92072 11.1488V22.0565C5.90205 22.168 5.79058 22.2796 5.67911 22.2796V22.2796Z" fill="#FF5C51"/>
</svg>
