<svg width="29" height="29" viewBox="0 0 29 29" fill="none" xmlns="http://www.w3.org/2000/svg">
<rect width="29" height="29" rx="5" fill="#FF5C51" fill-opacity="0.09"/>
<path d="M21.9877 7H7.01196C6.45404 7 6.00002 7.45417 6.00002 8.01209V16.3241C6.00002 16.8822 6.45404 17.3362 7.01196 17.3362H7.43855V18.5201H6.21256C6.09516 18.5201 6 18.6151 6 18.7327V22.0268C6 22.1442 6.09516 22.2394 6.21256 22.2394H7.43855V23.7874C7.43855 23.9048 7.53371 24 7.65111 24H9.18067C9.29806 24 9.39322 23.905 9.39322 23.7874V22.2394H19.6067V23.7874C19.6067 23.9048 19.7019 24 19.8193 24H21.3488C21.4662 24 21.5614 23.905 21.5614 23.7874V22.2394L22.7872 22.2391C22.9046 22.2391 22.9998 22.1441 22.9998 22.0265V18.7325C22.9998 18.6151 22.9046 18.5199 22.7872 18.5199H21.5611V17.336H21.9877C22.5458 17.336 22.9997 16.882 22.9997 16.3239L22.9998 8.01229C22.9998 7.45437 22.5458 7.0002 21.9879 7.0002L21.9877 7ZM7.86347 17.3361H8.96803V18.5199H7.86347V17.3361ZM9.39303 18.5199V17.3361H19.6065V18.5199H9.39303ZM8.96807 23.5747H7.86351V22.2392H8.96807V23.5747ZM21.1362 23.5747H20.0318V22.2392H21.1362V23.5747ZM22.5748 21.8141H6.42509V18.9451H22.5748V21.8141ZM21.1362 18.5201H20.0318V17.3362H21.1362V18.5201ZM22.5748 16.3241C22.5748 16.6478 22.3115 16.9112 21.9879 16.9112L7.01215 16.9111C6.68858 16.9111 6.42517 16.6478 6.42517 16.3241V8.01206C6.42517 7.68833 6.68857 7.42492 7.01215 7.42492L21.9879 7.42507C22.3114 7.42507 22.5748 7.68847 22.5748 8.01221V16.3241Z" fill="#FF5C51"/>
<path d="M11.8376 20.5921H17.1644C17.2818 20.5921 17.377 20.4971 17.377 20.3795C17.377 20.2622 17.2818 20.167 17.1644 20.167H11.8376C11.7202 20.167 11.625 20.262 11.625 20.3795C11.625 20.4969 11.7202 20.5921 11.8376 20.5921Z" fill="#FF5C51"/>
<path d="M20.0672 8.97754H11.5837C11.4663 8.97754 11.3711 9.07255 11.3711 9.1901C11.3711 9.30749 11.4663 9.40265 11.5837 9.40265H20.0672C20.1846 9.40265 20.2798 9.30764 20.2798 9.1901C20.2798 9.0727 20.1846 8.97754 20.0672 8.97754Z" fill="#FF5C51"/>
<path d="M20.0672 10.6245H11.5837C11.4663 10.6245 11.3711 10.7195 11.3711 10.8371C11.3711 10.9545 11.4663 11.0496 11.5837 11.0496H20.0672C20.1846 11.0496 20.2798 10.9546 20.2798 10.8371C20.2798 10.7195 20.1846 10.6245 20.0672 10.6245Z" fill="#FF5C51"/>
<path d="M9.08838 9.04684C9.00938 8.96057 8.87494 8.95361 8.78822 9.03291C8.70151 9.11191 8.69514 9.2465 8.77414 9.33321L9.39418 10.0134L8.77414 10.6936C8.69514 10.7804 8.70136 10.9148 8.78822 10.994C8.82884 11.0312 8.88012 11.0494 8.93126 11.0494C8.98892 11.0494 9.04658 11.026 9.08853 10.98L9.83883 10.1566C9.91265 10.0756 9.91265 9.95134 9.83883 9.87026L9.08838 9.04684Z" fill="#FF5C51"/>
<path d="M20.0672 13.2866H11.5837C11.4663 13.2866 11.3711 13.3816 11.3711 13.4992C11.3711 13.6166 11.4663 13.7117 11.5837 13.7117H20.0672C20.1846 13.7117 20.2798 13.6167 20.2798 13.4992C20.2798 13.3816 20.1846 13.2866 20.0672 13.2866Z" fill="#FF5C51"/>
<path d="M20.0672 14.9336H11.5837C11.4663 14.9336 11.3711 15.0286 11.3711 15.1462C11.3711 15.2635 11.4663 15.3587 11.5837 15.3587H20.0672C20.1846 15.3587 20.2798 15.2637 20.2798 15.1462C20.2798 15.0288 20.1846 14.9336 20.0672 14.9336Z" fill="#FF5C51"/>
<path d="M9.08838 13.3559C9.00938 13.2693 8.87494 13.263 8.78822 13.342C8.70151 13.421 8.69514 13.5556 8.77414 13.6423L9.39418 14.3225L8.77414 15.0027C8.69514 15.0894 8.70136 15.2239 8.78822 15.303C8.82884 15.3402 8.88012 15.3585 8.93126 15.3585C8.98892 15.3585 9.04658 15.335 9.08853 15.2891L9.83883 14.4657C9.91265 14.3846 9.91265 14.2604 9.83883 14.1793L9.08838 13.3559Z" fill="#FF5C51"/>
</svg>
