<svg width="25" height="15" viewBox="0 0 25 15" fill="none" xmlns="http://www.w3.org/2000/svg">
<path d="M0.820341 0C1.66988 0 2.96442 0 3.6926 0C4.05668 0 4.33986 0.242726 4.46123 0.56636C4.82532 1.61817 5.6344 3.92407 6.56485 5.50178C7.81893 7.56495 8.62802 8.33358 9.15393 8.25268C9.67983 8.13131 9.51801 6.75587 9.51801 5.6636C9.51801 4.57133 9.63938 2.71044 9.11347 1.8609L8.30439 0.687723C8.10211 0.404543 8.30439 0.0404544 8.62802 0.0404544H13.2398C13.6848 0.0404544 14.0489 0.404543 14.0489 0.84954V6.71541C14.0489 6.71541 14.2512 7.76722 15.3839 6.67496C16.5166 5.58269 17.7302 3.55998 18.7416 1.49681L19.1461 0.525906C19.2675 0.242726 19.5507 0.0404544 19.8743 0.0404544H22.8679C23.4343 0.0404544 23.8388 0.606815 23.6366 1.13272L23.3129 1.98226C23.3129 1.98226 22.2207 4.16679 21.0879 5.70405C19.9552 7.28177 19.7125 7.64586 19.8743 8.0504C20.0361 8.45495 22.9488 11.1654 23.677 12.4599C23.8793 12.824 24.0411 13.1476 24.2029 13.4308C24.4861 13.9567 24.0816 14.6445 23.4747 14.6445H20.0766C19.7934 14.6445 19.5102 14.4826 19.3889 14.2399L19.0652 13.714C19.0652 13.714 17.0021 11.2867 15.748 10.5181C14.4534 9.78994 14.4939 10.8418 14.4939 10.8418V12.9858C14.4939 13.8758 13.7657 14.604 12.8757 14.604H12.0666C12.0666 14.604 7.61666 14.604 4.05668 9.30449C1.26534 5.17815 0.33489 2.50817 0.0112556 0.970903C-0.069653 0.485451 0.294436 0 0.820341 0Z" fill="white"/>
</svg>
